<svg width="20" height="20" viewBox="0 0 20 20" fill="none" xmlns="http://www.w3.org/2000/svg">
<g clip-path="url(#clip0_76_30)">
<rect x="-68" y="-43" width="648" height="598" fill="white"/>
<path d="M14.4928 8.65149C14.4928 9.94 14.0744 11.1303 13.3697 12.0959L16.9243 15.6527C17.2752 16.0036 17.2752 16.5734 16.9243 16.9243C16.5733 17.2752 16.0033 17.2752 15.6524 16.9243L12.0977 13.3676C11.1319 14.075 9.94139 14.4905 8.65263 14.4905C5.42652 14.4905 2.8125 11.877 2.8125 8.65149C2.8125 5.42601 5.42652 2.8125 8.65263 2.8125C11.8787 2.8125 14.4928 5.42601 14.4928 8.65149ZM8.65263 12.6939C9.18359 12.6939 9.70934 12.5893 10.1999 12.3862C10.6904 12.183 11.1361 11.8852 11.5116 11.5099C11.887 11.1345 12.1848 10.6889 12.388 10.1984C12.5912 9.708 12.6958 9.18234 12.6958 8.65149C12.6958 8.12064 12.5912 7.59498 12.388 7.10454C12.1848 6.61409 11.887 6.16847 11.5116 5.7931C11.1361 5.41773 10.6904 5.11997 10.1999 4.91682C9.70934 4.71367 9.18359 4.60911 8.65263 4.60911C8.12167 4.60911 7.59592 4.71367 7.10538 4.91682C6.61484 5.11997 6.16912 5.41773 5.79368 5.7931C5.41824 6.16847 5.12042 6.61409 4.91723 7.10454C4.71404 7.59498 4.60946 8.12064 4.60946 8.65149C4.60946 9.18234 4.71404 9.708 4.91723 10.1984C5.12042 10.6889 5.41824 11.1345 5.79368 11.5099C6.16912 11.8852 6.61484 12.183 7.10538 12.3862C7.59592 12.5893 8.12167 12.6939 8.65263 12.6939Z" fill="black"/>
</g>
<defs>
<clipPath id="clip0_76_30">
<rect width="20" height="20" fill="white"/>
</clipPath>
</defs>
</svg>
